<svg xmlns="http://www.w3.org/2000/svg" width="32" height="24" viewBox="0 0 32 24">
  <defs>
    <style>
      .cls-1 {
        fill: #fff;
        fill-rule: evenodd;
      }
    </style>
  </defs>
  <path id="email" class="cls-1" d="M1187,6076h26a3,3,0,0,1,3,3v18a3,3,0,0,1-3,3h-26a3,3,0,0,1-3-3v-18A3,3,0,0,1,1187,6076Zm14,15.32V6092h-2v-0.68l-13-12.05,1.27-1.27,12.73,11.8,12.73-11.8,1.27,1.27Zm-6.01-1.58-8.25,8.25-0.73-.73,8.25-8.25Zm19,7.52-0.73.73-8.25-8.25,0.73-.73Z" transform="translate(-1184 -6076)"/>
</svg>
