<svg xmlns="http://www.w3.org/2000/svg" width="42" height="18" viewBox="0 0 42 18">
  <defs>
    <style>
      .cls-1 {
        fill: #fff;
        fill-rule: evenodd;
      }
    </style>
  </defs>
  <path id="free" class="cls-1" d="M3,0H39V18H3V0ZM9.162,14V10.64h3.144v-1.6H9.162V7.208h3.816V5.48H7.194V14H9.162Zm6.828,0V11.252h1.284L18.906,14h2.22l-1.872-3.168a2.611,2.611,0,0,0,1.02-1.02,2.972,2.972,0,0,0,.372-1.452,2.75,2.75,0,0,0-.21-1.044,3.1,3.1,0,0,0-.582-0.924,2.955,2.955,0,0,0-.882-0.66,2.474,2.474,0,0,0-1.11-.252h-3.84V14H15.99Zm0-6.792h1.74a0.844,0.844,0,0,1,.624.312,1.19,1.19,0,0,1,.288.84,1.355,1.355,0,0,1-.252.846,0.739,0.739,0,0,1-.6.33h-1.8V7.208Zm8.04,5.064V10.46h3.36v-1.6H24.03V7.208h3.912V5.48h-5.88V14H28.05V12.272H24.03Zm7.188,0V10.46h3.36v-1.6h-3.36V7.208H35.13V5.48H29.25V14h5.988V12.272h-4.02ZM39,0c1.657,0,3,4.582,3,9s-1.343,9-3,9-3-4.582-3-9S37.343,0,39,0ZM3,0C4.657,0,6,4.582,6,9s-1.343,9-3,9S0,13.418,0,9,1.343,0,3,0Z"/>
</svg>
