<svg xmlns="http://www.w3.org/2000/svg" width="42" height="24.47" viewBox="0 0 42 24.47">
  <defs>
    <style>
      .cls-1 {
        fill: #9d9d9d;
        fill-rule: evenodd;
      }
    </style>
  </defs>
  <path id="graduate" class="cls-1" d="M52.541,3390.79s-4.577-4.68-10.887-4.68c-6.165,0-12.259,4.68-12.259,4.68l-3.422-1.43v4.2a1.354,1.354,0,0,1-.016,2.58l1.012,2.83H23.982L25,3396.11a1.369,1.369,0,0,1-.025-2.51v-4.66L20,3386.86,41.9,3377l20.1,9.98Zm-11.136-2.31c6.347,0,9.458,3.37,9.458,3.37v6.99s-3.236,2.62-9.956,2.62-8.96-2.62-8.96-2.62v-6.99S35.058,3388.48,41.405,3388.48Zm-0.124,11.49c4.4,0,7.965-.9,7.965-2s-3.566-2-7.965-2-7.965.9-7.965,2S36.882,3399.97,41.281,3399.97Z" transform="translate(-20 -3377)"/>
</svg>
