<svg xmlns="http://www.w3.org/2000/svg" width="11" height="24.94" viewBox="0 0 11 24.94">
  <defs>
    <style>
      .cls-1 {
        fill: #fff;
        fill-rule: evenodd;
      }
    </style>
  </defs>
  <path id="microphone" class="cls-1" d="M1135.53,2599.06c3.03,0,5.48.45,5.48,3.48v6.43h-11.02v-6.43C1129.99,2599.51,1132.51,2599.06,1135.53,2599.06Zm5.48,21.48c0,3.02-2.45,3.47-5.48,3.47s-5.54-.45-5.54-3.47v-10.58h11.02v10.58Zm-3.51,1.46a0.5,0.5,0,1,1,.5-0.5A0.5,0.5,0,0,1,1137.5,2622Zm-2,0a0.5,0.5,0,1,1,.5-0.5A0.5,0.5,0,0,1,1135.5,2622Zm-2,0a0.5,0.5,0,1,1,.5-0.5A0.5,0.5,0,0,1,1133.5,2622Zm5-2a0.5,0.5,0,1,1,.5-0.5A0.5,0.5,0,0,1,1138.5,2620Zm-2,0a0.5,0.5,0,1,1,.5-0.5A0.5,0.5,0,0,1,1136.5,2620Zm-2,0a0.5,0.5,0,1,1,.5-0.5A0.5,0.5,0,0,1,1134.5,2620Zm-2,0a0.5,0.5,0,1,1,.5-0.5A0.5,0.5,0,0,1,1132.5,2620Zm7-2a0.5,0.5,0,1,1,.5-0.5A0.5,0.5,0,0,1,1139.5,2618Zm-2,0a0.5,0.5,0,1,1,.5-0.5A0.5,0.5,0,0,1,1137.5,2618Zm-2,0a0.5,0.5,0,1,1,.5-0.5A0.5,0.5,0,0,1,1135.5,2618Zm-2,0a0.5,0.5,0,1,1,.5-0.5A0.5,0.5,0,0,1,1133.5,2618Zm-2,0a0.5,0.5,0,1,1,.5-0.5A0.5,0.5,0,0,1,1131.5,2618Zm8-2a0.5,0.5,0,1,1,.5-0.5A0.5,0.5,0,0,1,1139.5,2616Zm-2,0a0.5,0.5,0,1,1,.5-0.5A0.5,0.5,0,0,1,1137.5,2616Zm-2,0a0.5,0.5,0,1,1,.5-0.5A0.5,0.5,0,0,1,1135.5,2616Zm-2,0a0.5,0.5,0,1,1,.5-0.5A0.5,0.5,0,0,1,1133.5,2616Zm-2,0a0.5,0.5,0,1,1,.5-0.5A0.5,0.5,0,0,1,1131.5,2616Zm8-2a0.5,0.5,0,1,1,.5-0.5A0.5,0.5,0,0,1,1139.5,2614Zm-2,0a0.5,0.5,0,1,1,.5-0.5A0.5,0.5,0,0,1,1137.5,2614Zm-2,0a0.5,0.5,0,1,1,.5-0.5A0.5,0.5,0,0,1,1135.5,2614Zm-2,0a0.5,0.5,0,1,1,.5-0.5A0.5,0.5,0,0,1,1133.5,2614Zm-2,0a0.5,0.5,0,1,1,.5-0.5A0.5,0.5,0,0,1,1131.5,2614Zm8-2a0.5,0.5,0,1,1,.5-0.5A0.5,0.5,0,0,1,1139.5,2612Zm-2,0a0.5,0.5,0,1,1,.5-0.5A0.5,0.5,0,0,1,1137.5,2612Zm-2,0a0.5,0.5,0,1,1,.5-0.5A0.5,0.5,0,0,1,1135.5,2612Zm-2,0a0.5,0.5,0,1,1,.5-0.5A0.5,0.5,0,0,1,1133.5,2612Zm-2,0a0.5,0.5,0,1,1,.5-0.5A0.5,0.5,0,0,1,1131.5,2612Z" transform="translate(-1130 -2599.06)"/>
</svg>
