<svg xmlns="http://www.w3.org/2000/svg" width="11" height="24.937" viewBox="0 0 11 24.937">
  <defs>
    <style>
      .cls-1 {
        fill: #11a0dc;
        fill-rule: evenodd;
      }
    </style>
  </defs>
  <path id="microphone" class="cls-1" d="M811.532,216.06c3.025,0,5.477.453,5.477,3.478v6.431H805.992v-6.431C805.992,216.513,808.507,216.06,811.532,216.06Zm5.477,21.476c0,3.025-2.452,3.477-5.477,3.477s-5.54-.452-5.54-3.477V226.965h11.017v10.571ZM813.5,239a0.5,0.5,0,1,1,.5-0.5A0.5,0.5,0,0,1,813.5,239Zm-2,0a0.5,0.5,0,1,1,.5-0.5A0.5,0.5,0,0,1,811.5,239Zm-2,0a0.5,0.5,0,1,1,.5-0.5A0.5,0.5,0,0,1,809.5,239Zm5-2a0.5,0.5,0,1,1,.5-0.5A0.5,0.5,0,0,1,814.5,237Zm-2,0a0.5,0.5,0,1,1,.5-0.5A0.5,0.5,0,0,1,812.5,237Zm-2,0a0.5,0.5,0,1,1,.5-0.5A0.5,0.5,0,0,1,810.5,237Zm-2,0a0.5,0.5,0,1,1,.5-0.5A0.5,0.5,0,0,1,808.5,237Zm7-2a0.5,0.5,0,1,1,.5-0.5A0.5,0.5,0,0,1,815.5,235Zm-2,0a0.5,0.5,0,1,1,.5-0.5A0.5,0.5,0,0,1,813.5,235Zm-2,0a0.5,0.5,0,1,1,.5-0.5A0.5,0.5,0,0,1,811.5,235Zm-2,0a0.5,0.5,0,1,1,.5-0.5A0.5,0.5,0,0,1,809.5,235Zm-2,0a0.5,0.5,0,1,1,.5-0.5A0.5,0.5,0,0,1,807.5,235Zm8-2a0.5,0.5,0,1,1,.5-0.5A0.5,0.5,0,0,1,815.5,233Zm-2,0a0.5,0.5,0,1,1,.5-0.5A0.5,0.5,0,0,1,813.5,233Zm-2,0a0.5,0.5,0,1,1,.5-0.5A0.5,0.5,0,0,1,811.5,233Zm-2,0a0.5,0.5,0,1,1,.5-0.5A0.5,0.5,0,0,1,809.5,233Zm-2,0a0.5,0.5,0,1,1,.5-0.5A0.5,0.5,0,0,1,807.5,233Zm8-2a0.5,0.5,0,1,1,.5-0.5A0.5,0.5,0,0,1,815.5,231Zm-2,0a0.5,0.5,0,1,1,.5-0.5A0.5,0.5,0,0,1,813.5,231Zm-2,0a0.5,0.5,0,1,1,.5-0.5A0.5,0.5,0,0,1,811.5,231Zm-2,0a0.5,0.5,0,1,1,.5-0.5A0.5,0.5,0,0,1,809.5,231Zm-2,0a0.5,0.5,0,1,1,.5-0.5A0.5,0.5,0,0,1,807.5,231Zm8-2a0.5,0.5,0,1,1,.5-0.5A0.5,0.5,0,0,1,815.5,229Zm-2,0a0.5,0.5,0,1,1,.5-0.5A0.5,0.5,0,0,1,813.5,229Zm-2,0a0.5,0.5,0,1,1,.5-0.5A0.5,0.5,0,0,1,811.5,229Zm-2,0a0.5,0.5,0,1,1,.5-0.5A0.5,0.5,0,0,1,809.5,229Zm-2,0a0.5,0.5,0,1,1,.5-0.5A0.5,0.5,0,0,1,807.5,229Z" transform="translate(-806 -216.063)"/>
</svg>
