<svg xmlns="http://www.w3.org/2000/svg" width="15" height="29" viewBox="0 0 15 29">
  <defs>
    <style>
      .cls-1 {
        fill: #9d9d9d;
        fill-rule: evenodd;
      }
    </style>
  </defs>
  <path id="microphone" class="cls-1" d="M42.4,3161.9v2.99c2.995,0.17,5.311,1.16,5.311,2.08,0,0.03-12.282.03-12.282,0,0-.89,2.144-1.85,4.979-2.06v-3.02a7.451,7.451,0,0,1-6.41-7.37v-1.49h1v1.49a6.475,6.475,0,0,0,6.471,6.48h0A6.528,6.528,0,0,0,48,3154.52v-1.49h1v1.49A7.506,7.506,0,0,1,42.4,3161.9Zm-0.934-1.96a5.476,5.476,0,0,1-5.477-5.48v-1.43H47.007v1.43A5.53,5.53,0,0,1,41.468,3159.94Zm-5.477-16.48a5.508,5.508,0,0,1,11.017,0v8.57H35.991v-8.57ZM39.5,3140a0.5,0.5,0,0,1,.5.5,0.5,0.5,0,0,1-1,0A0.5,0.5,0,0,1,39.5,3140Zm2,0a0.5,0.5,0,0,1,.5.5,0.5,0.5,0,1,1-1,0A0.5,0.5,0,0,1,41.5,3140Zm2,0a0.5,0.5,0,0,1,.5.5,0.5,0.5,0,0,1-1,0A0.5,0.5,0,0,1,43.5,3140Zm-5,2a0.5,0.5,0,1,1-.5.5A0.5,0.5,0,0,1,38.5,3142Zm2,0a0.5,0.5,0,1,1-.5.5A0.5,0.5,0,0,1,40.5,3142Zm2,0a0.5,0.5,0,1,1-.5.5A0.5,0.5,0,0,1,42.5,3142Zm2,0a0.5,0.5,0,1,1-.5.5A0.5,0.5,0,0,1,44.5,3142Zm-7,2a0.5,0.5,0,1,1-.5.5A0.5,0.5,0,0,1,37.5,3144Zm2,0a0.5,0.5,0,1,1-.5.5A0.5,0.5,0,0,1,39.5,3144Zm2,0a0.5,0.5,0,1,1-.5.5A0.5,0.5,0,0,1,41.5,3144Zm2,0a0.5,0.5,0,1,1-.5.5A0.5,0.5,0,0,1,43.5,3144Zm2,0a0.5,0.5,0,1,1-.5.5A0.5,0.5,0,0,1,45.5,3144Zm-8,2a0.5,0.5,0,0,1,.5.5,0.5,0.5,0,0,1-1,0A0.5,0.5,0,0,1,37.5,3146Zm2,0a0.5,0.5,0,0,1,.5.5,0.5,0.5,0,0,1-1,0A0.5,0.5,0,0,1,39.5,3146Zm2,0a0.5,0.5,0,0,1,.5.5,0.5,0.5,0,1,1-1,0A0.5,0.5,0,0,1,41.5,3146Zm2,0a0.5,0.5,0,0,1,.5.5,0.5,0.5,0,0,1-1,0A0.5,0.5,0,0,1,43.5,3146Zm2,0a0.5,0.5,0,0,1,.5.5,0.5,0.5,0,0,1-1,0A0.5,0.5,0,0,1,45.5,3146Zm-8,2a0.5,0.5,0,1,1-.5.5A0.5,0.5,0,0,1,37.5,3148Zm2,0a0.5,0.5,0,1,1-.5.5A0.5,0.5,0,0,1,39.5,3148Zm2,0a0.5,0.5,0,1,1-.5.5A0.5,0.5,0,0,1,41.5,3148Zm2,0a0.5,0.5,0,1,1-.5.5A0.5,0.5,0,0,1,43.5,3148Zm2,0a0.5,0.5,0,1,1-.5.5A0.5,0.5,0,0,1,45.5,3148Zm-8,2a0.5,0.5,0,1,1-.5.5A0.5,0.5,0,0,1,37.5,3150Zm2,0a0.5,0.5,0,1,1-.5.5A0.5,0.5,0,0,1,39.5,3150Zm2,0a0.5,0.5,0,1,1-.5.5A0.5,0.5,0,0,1,41.5,3150Zm2,0a0.5,0.5,0,1,1-.5.5A0.5,0.5,0,0,1,43.5,3150Zm2,0a0.5,0.5,0,1,1-.5.5A0.5,0.5,0,0,1,45.5,3150Z" transform="translate(-34 -3138)"/>
</svg>
