<svg xmlns="http://www.w3.org/2000/svg" width="31.94" height="32" viewBox="0 0 31.94 32">
  <defs>
    <style>
      .cls-1 {
        fill: #fff;
        fill-rule: evenodd;
      }
    </style>
  </defs>
  <path id="proper_fucking_phone" data-name="proper fucking phone" class="cls-1" d="M1186.13,6311.21c1.28-1.28,5.14-1.49,5.17-.81s3.48,8.19,3.51,8.86-2.28,2.99-2.95,3.67,4.51,6.53,4.61,6.64,5.96,5.29,6.62,4.62c0.68-.68,2.98-2.99,3.66-2.96s8.17,3.49,8.85,3.52,0.46,3.9-.82,5.18c-1.09,1.1-6.75,5.07-16.59-2.03a31.193,31.193,0,0,1-5.38-4.64,0.01,0.01,0,0,0-.01-0.01h0l-0.01-.01h0a31.065,31.065,0,0,1-4.64-5.4C1181.07,6317.98,1185.04,6312.31,1186.13,6311.21Z" transform="translate(-1184.03 -6310.03)"/>
</svg>
