<svg xmlns="http://www.w3.org/2000/svg" width="25.031" height="24.88" viewBox="0 0 25.031 24.88">
  <defs>
    <style>
      .cls-1 {
        fill: #9d9d9d;
        fill-rule: evenodd;
      }
    </style>
  </defs>
  <path class="cls-1" d="M40.5,2624.07s11.572,8.35,12.118,8.71,0.572,0.91-.01,1.17H28.437c-0.619-.26-0.582-0.8,0-1.17S40.5,2624.07,40.5,2624.07ZM30,2634.93H50.989l0.022,10H29.974Zm-0.958,11.02H52.007v0.98H29.039v-0.98Zm-1,2.06H53v0.92H28.042v-0.92Zm12.46-19.82a1.75,1.75,0,1,1-1.748,1.75A1.747,1.747,0,0,1,40.5,2628.19ZM36,2637h9v6H36v-6Z" transform="translate(-28 -2624.06)"/>
</svg>
