<svg xmlns="http://www.w3.org/2000/svg" width="25.563" height="25" viewBox="0 0 25.563 25">
  <defs>
    <style>
      .cls-1 {
        fill: #9d9d9d;
        fill-rule: evenodd;
      }
    </style>
  </defs>
  <path id="tools" class="cls-1" d="M53.311,3590.31a6.359,6.359,0,0,1-9.013,7.98l-1.758,1.92,1.254,1.26,0.75-.75a0.988,0.988,0,0,1,1.388,0l6.082,6.14a0.983,0.983,0,0,1,0,1.39l-2.776,2.78a0.988,0.988,0,0,1-1.388,0l-6.082-6.15a0.972,0.972,0,0,1,0-1.38l0.685-.69-1.2-1.2-8.412,9.19a1.957,1.957,0,0,1-2.776,0l-0.694-.69a1.968,1.968,0,0,1,0-2.78l9.582-8.02-6.364-6.39H30.582l-2.325-3.74,1.873-1.87,3.825,2.34,0.026,1.97,6.438,6.46,1.873-1.57a6.362,6.362,0,0,1,7.541-9.66l-4.125,4.07,3.471,3.47Zm-21.632,18a0.982,0.982,0,1,0,0,1.39A0.988,0.988,0,0,0,31.678,3608.31Z" transform="translate(-28.25 -3586.38)"/>
</svg>
